<?xml version="1.0" standalone="no"?> <!DOCTYPE svg PUBLIC "-//W3C//DTD SVG 1.0//EN" "http://www.w3.org/TR/2001/REC-SVG-20010904/DTD/svg10.dtd" > <svg xmlns="http://www.w3.org/2000/svg" width="100%" height="100%">
<defs >
<font id="latohairlineitalic" horiz-adv-x="1002" ><font-face
    font-family="Lato"
    units-per-em="2000"
    panose-1="2 15 5 2 2 2 4 3 2 3"
    ascent="1974"
    descent="-426"
    alphabetic="0" />
<missing-glyph horiz-adv-x="993" d="M273 1127Q291 1145 313 1163T362 1194T421 1216T492 1225Q537 1225 579 1211T654 1171T705 1106T725 1019Q725 965 708 925T664 855T606 802T548 759T503 718T484 671L479 548H463V673Q463 701 480 723T525 766T582 809T640
861T684 928T702 1018Q702 1062 685 1097T638 1156T570 1192T492 1205Q442 1205 405 1191T342 1160T303 1129T286 1115Q282 1115 279 1118L273 1127ZM422 241Q422 262 436 277T471 292Q491 292 505 277T520 241Q520 221 506 207T471 192Q450 192 436 206T422 241ZM50
1400H943V0H50V1400ZM70 20H923V1380H70V20Z" />
<glyph unicode=" " glyph-name="null" horiz-adv-x="536" />
<glyph unicode="!" glyph-name="null" horiz-adv-x="448" d="M333 1400L263 828Q257 784 252 746T241 667T229 581T213 476H197Q203 535 207 581T216 667T225 745T235 828L305 1400H333ZM101 48Q101 75 119 94T165 114Q192 114 211 95T231 48Q231 21 212 3T165
-16Q138 -16 120 2T101 48Z" />
<glyph unicode="&quot;" glyph-name="null" horiz-adv-x="587" d="M284 1400L248 1106L228 954Q228 946 220 946Q212 946 212 954L228 1106L266 1400H284ZM518 1400L482 1106L462 954Q462 946 454 946Q446 946 446 954L462 1106L500 1400H518Z" />
<glyph unicode="#" glyph-name="null" horiz-adv-x="1160" d="M838 922H496L342 478H684L838 922ZM1099 940L1097 934Q1097 922 1083 922H860L706 478H971Q985 478 985 466L983 460H702L543 0H537Q529 0 526 2T527 16L680 460H338L185 16Q180 0 167 0H157L316
460H101Q95 460 91 463T89 472V478H320L474 922H201V928Q201 934 206 937T217 940H477L631 1384Q636 1400 651 1400H659L499 940H841L1001 1400H1011Q1017 1400 1019 1396T1017 1380L863 940H1099Z" />
<glyph unicode="$" glyph-name="null" horiz-adv-x="1160" d="M696 1396Q605 1394 533 1364T412 1285T336 1173T309 1040Q309 975 333 930T396 853T487 798T595 756L696 1396ZM498 4Q599 7 680 43T818 136T906 269T937 428Q937 499 909 546T836 627T732 682T612
725L498 4ZM721 1416Q819 1414 889 1381T1019 1278L1015 1272Q1012 1266 1005 1266Q998 1266 990 1275T967 1299T933 1329T882 1360T812 1385T718 1396L616 749Q679 727 741 703T852 645T931 559T961 432Q961 343 929 263T836 123T689 25T495 -16L457 -258Q457
-274 443 -274H433L474 -16Q404 -16 350 -3T253 33T175 90T109 166L113 170Q118 173 120 174T127 176Q133 176 143 164T170 132T212 91T275 49T361 17T477 4L592 732Q533 752 479 775T381 833T313 916T287 1036Q287 1110 315 1178T397 1298T527 1382T700 1416L729
1602Q732 1618 743 1618H753L721 1416Z" />
<glyph unicode="%" glyph-name="null" horiz-adv-x="1409" d="M685 1130Q685 1023 660 945T592 816T494 739T379 714Q332 714 292 731T222 784T176 873T159 998Q159 1104 184 1183T251 1313T348 1390T465 1416Q511 1416 551 1399T621 1345T668 1256T685 1130ZM663
1130Q663 1198 648 1248T605 1332T542 1381T463 1398Q407 1398 356 1375T266 1302T203 1177T179 998Q179 930 194 880T237 797T301 748T381 732Q436 732 487 755T577 827T639 951T663 1130ZM1237 1392Q1245 1400 1255 1400H1269L187 8Q182 0 171 0H157L1237 1392ZM1277
400Q1277 293 1252 215T1184 86T1086 9T971 -16Q924 -16 884 1T814 54T768 143T751 268Q751 374 776 453T843 583T940 660T1057 686Q1103 686 1143 669T1213 615T1260 526T1277 400ZM1255 400Q1255 468 1240 518T1197 602T1134 651T1055 668Q999 668 948 645T858
572T795 447T771 268Q771 200 786 150T829 67T893 18T973 2Q1028 2 1079 25T1169 97T1231 221T1255 400Z" />
<glyph unicode="&amp;" glyph-name="null" horiz-adv-x="1264" d="M511 736Q506 743 501 749T490 762Q410 735 341 690T220 585T139 453T109 302Q109 227 136 171T207 78T302 23T405 4Q480 4 549 25T680 84T795 171T891 277L511 736ZM1157 0H1141Q1132 0 1127
1T1113 10L905 261Q860 204 805 154T687 66T551 6T401 -16Q341 -16 284 5T183 66T112 165T85 300Q85 384 116 459T201 596T326 704T478 777Q420 852 391 920T361 1066Q361 1143 387 1207T459 1318T568 1390T705 1416Q758 1416 804 1398T885 1346T940 1262T960 1152H951Q946
1152 943 1155T939 1168Q939 1199 927 1238T887 1313T814 1372T705 1396Q634 1396 576 1372T475 1305T409 1203T385 1074Q385 994 422 914T527 752L907 298Q965 377 1001 459T1052 610Q1055 622 1067 622H1077Q1066 548 1026 459T921 282L1157 0Z" />
<glyph unicode="&apos;" glyph-name="null" horiz-adv-x="353" d="M284 1400L248 1106L228 954Q228 946 220 946Q212 946 212 954L228 1106L266 1400H284Z" />
<glyph unicode="(" glyph-name="null" horiz-adv-x="480" d="M148 458Q148 375 157 288T185 113T232 -58T298 -218Q303 -224 301 -228T296 -234L286 -240Q199 -60 162 117T124 450Q124 529 128 605T145 759T183 918T249 1090T352 1283T500 1504L510 1498Q512 1496
512 1492T508 1482Q417 1358 350 1244T237 1009T170 755T148 458Z" />
<glyph unicode=")" glyph-name="null" horiz-adv-x="480" d="M343 806Q343 889 334 976T305 1151T257 1321T191 1482Q185 1494 193 1498L205 1504Q291 1323 328 1147T365 814Q365 735 361 659T345 505T307 346T241 174T138 -19T-9 -240L-19 -234Q-26 -230 -17
-218Q74 -94 141 27T254 272T321 528T343 806Z" />
<glyph unicode="*" glyph-name="null" horiz-adv-x="785" d="M509 1220Q499 1214 492 1211T470 1203Q484 1198 490 1196T505 1188L679 1070L667 1052L495 1170Q485 1176 481 1179T465 1195Q465 1178 466 1172T465 1154L437 926H417L445 1154Q447 1165 449 1172T458
1197Q444 1184 438 1180T421 1170L221 1052L213 1070L413 1188Q423 1194 430 1196T454 1203Q438 1210 432 1212T417 1220L245 1338L257 1356L429 1238Q438 1232 441 1227T459 1208Q457 1226 456 1234T457 1254L485 1482H505L477 1254Q475 1243 473 1235T466 1209Q479
1222 485 1227T503 1238L703 1356L709 1338L509 1220Z" />
<glyph unicode="+" glyph-name="null" horiz-adv-x="1160" d="M1050 660H598L540 188H520L578 660H128L130 680H580L638 1150H658L600 680H1052L1050 660Z" />
<glyph unicode="," glyph-name="null" horiz-adv-x="403" d="M72 -234Q70 -232 70 -230T70 -226Q70 -222 86 -202T121 -151T156 -79T174 11Q158 -8 128 -8Q104 -8 88 8T72 52Q72 76 88 95T132 114Q159 114 176 94T194 36Q194 -41 161 -112T76 -238L72 -234Z" />
<glyph unicode="-" glyph-name="null" horiz-adv-x="720" d="M158 598H562L560 578H154L158 598Z" />
<glyph unicode="." glyph-name="null" horiz-adv-x="451" d="M97 48Q97 75 115 94T161 114Q188 114 207 95T227 48Q227 21 208 3T161 -16Q134 -16 116 2T97 48Z" />
<glyph unicode="/" glyph-name="null" horiz-adv-x="785" d="M31 -66Q28 -74 22 -76T9 -78H1L775 1428Q781 1440 795 1440H805L31 -66Z" />
<glyph unicode="0" glyph-name="null" horiz-adv-x="1160" d="M1061 853Q1061 632 1015 469T891 199T714 39T505 -14Q424 -14 355 21T234 126T153 301T124 548Q124 768 170 931T294 1202T471 1363T680 1416Q761 1416 830 1381T951 1276T1032 1100T1061 853ZM1035
854Q1035 990 1008 1092T933 1261T820 1362T678 1396Q576 1396 480 1345T311 1189T193 925T148 548Q148 411 175 309T251 140T365 39T507 6Q610 6 705 57T873 212T991 476T1035 854Z" />
<glyph unicode="1" glyph-name="null" horiz-adv-x="1160" d="M884 20L881 0H240L243 20H555L714 1316Q717 1342 725 1373L353 1046Q342 1036 334 1046L329 1054L735 1408H750L579 20H884Z" />
<glyph unicode="2" glyph-name="null" horiz-adv-x="1160" d="M901 22Q912 22 910 12L908 0H101L103 10Q103 15 106 18T112 24L638 536Q708 605 771 669T880 801T954 941T982 1100Q982 1176 958 1232T893 1324T799 1378T689 1396Q618 1396 555 1372T441 1305T353
1201T295 1068Q291 1052 278 1052H267Q288 1136 328 1203T423 1318T547 1390T692 1416Q753 1416 809 1398T909 1341T979 1243T1006 1102Q1006 1010 977 934T900 789T787 656T651 522L134 18Q154 20 180 21T238 22H901Z" />
<glyph unicode="3" glyph-name="null" horiz-adv-x="1160" d="M266 1052Q287 1136 327 1203T422 1318T545 1390T690 1416Q751 1416 807 1399T905 1345T973 1251T999 1116Q999 1032 970 964T892 846T783 764T660 722Q732 715 786 690T876 624T931 530T950 416Q950
329 915 251T818 113T675 19T498 -16Q420 -16 364 1T269 45T205 109T166 185T144 263T134 336L139 338Q142 340 150 340T160 324Q161 317 164 291T177 230T207 155T265 82T360 26T500 4Q601 4 680 42T814 140T897 272T926 414Q926 476 905 530T840 624T725 688T557
712L559 728Q652 731 728 760T859 839T944 959T975 1114Q975 1187 952 1240T889 1328T797 1379T688 1396Q616 1396 553 1372T439 1305T350 1201T292 1068Q287 1052 276 1052H266Z" />
<glyph unicode="4" glyph-name="null" horiz-adv-x="1160" d="M741 452L848 1322Q849 1340 854 1358L110 452H741ZM1034 452L1033 444Q1031 432 1017 432H760L707 0H686L739 432H99Q89 432 87 434T83 442L82 450L865 1402H880L763 452H1034Z" />
<glyph unicode="5" glyph-name="null" horiz-adv-x="1160" d="M1012 1400L1010 1390Q1010 1385 1006 1382T995 1378H477L315 823Q387 843 450 852T569 861Q659 861 726 835T839 762T906 650T929 507Q929 382 888 285T778 121T621 19T438 -16Q388 -16 343 -7T260
16T191 49T137 88L144 96Q148 102 157 102Q164 102 184 88T239 55T324 23T441 8Q531 8 614 40T762 137T864 294T903 509Q903 580 883 641T822 746T718 816T566 841Q511 841 446 832T305 802L289 810L459 1400H1012Z" />
<glyph unicode="6" glyph-name="null" horiz-adv-x="1067" d="M502 4Q602 4 683 38T822 134T911 279T943 461Q943 538 921 600T858 706T759 774T629 798Q528 798 447 759T308 657T219 515T187 357Q187 281 208 217T270 105T369 31T502 4ZM409 836Q352 765 312
708T245 596Q276 648 318 689T411 758T517 802T630 818Q709 818 771 791T877 717T943 604T966 461Q966 354 930 267T831 116T683 19T500 -16Q424 -16 362 9T256 83T188 200T164 359Q164 414 176 469T216 582T287 706T390 846L830 1394Q833 1399 836 1399T843 1400H863L409
836Z" />
<glyph unicode="7" glyph-name="null" horiz-adv-x="1160" d="M1107 1400L1106 1388Q1105 1385 1104 1381T1100 1374L294 12Q286 0 271 0H259L1067 1364Q1069 1368 1072 1371T1077 1378H275Q263 1378 265 1390L266 1400H1107Z" />
<glyph unicode="8" glyph-name="null" horiz-adv-x="1160" d="M507 4Q597 4 675 32T812 112T903 240T936 409Q936 471 921 518T879 599T818 657T745 694T668 714T595 720Q555 720 508 713T413 688T321 640T242 565T187 459T166 315Q166 244 190 187T260 89T367
26T507 4ZM301 1028Q301 972 318 920T372 828T465 764T597 740Q689 740 759 771T877 853T949 971T974 1109Q974 1170 955 1223T897 1314T804 1374T678 1396Q593 1396 524 1368T405 1291T328 1174T301 1028ZM683 731Q739 721 789 698T878 635T938 540T960 410Q960
310 925 231T829 97T685 13T505 -16Q423 -16 356 7T242 72T168 175T142 311Q142 412 173 486T255 611T372 691T510 731Q453 744 410 771T337 837T292 924T277 1026Q277 1106 305 1177T387 1301T514 1385T680 1416Q757 1416 816 1392T916 1326T977 1229T998 1110Q998
1039 976 977T914 864T815 780T683 731Z" />
<glyph unicode="9" glyph-name="null" horiz-adv-x="1160" d="M560 634Q656 634 734 671T867 769T953 905T983 1055Q983 1128 962 1190T900 1299T805 1370T681 1396Q591 1396 514 1364T379 1275T290 1136T257 957Q257 883 278 824T339 722T435 657T560 634ZM771
596Q825 668 866 725T936 839Q906 787 864 746T773 675T668 630T558 614Q481 614 421 640T319 712T255 821T233 958Q233 1058 269 1142T366 1287T509 1382T683 1416Q755 1416 814 1390T916 1315T982 1199T1006 1049Q1006 985 992 932T951 826T883 716T788 586L359
6Q355 1 352 1T346 0H326L771 596Z" />
<glyph unicode=":" glyph-name="null" horiz-adv-x="452" d="M98 48Q98 75 116 94T162 114Q189 114 208 95T228 48Q228 21 209 3T162 -16Q135 -16 117 2T98 48ZM192 886Q192 913 210 932T256 952Q283 952 302 933T322 886Q322 859 303 841T256 822Q229 822 211
840T192 886Z" />
<glyph unicode=";" glyph-name="null" horiz-adv-x="470" d="M111 -234Q109 -232 109 -230T109 -226Q109 -222 125 -202T160 -151T195 -79T213 11Q197 -8 167 -8Q143 -8 127 8T111 52Q111 76 127 95T171 114Q198 114 215 94T233 36Q233 -41 200 -112T115 -238L111
-234ZM201 886Q201 913 219 932T265 952Q292 952 311 933T331 886Q331 859 312 841T265 822Q238 822 220 840T201 886Z" />
<glyph unicode="&lt;" glyph-name="null" horiz-adv-x="1160" d="M970 1048L969 1037Q968 1026 947 1016L264 690Q252 684 240 679T215 670Q227 667 237 662T259 650L862 324Q880 314 879 303L877 292L193 664V666V668L194 674H195V676L970 1048Z" />
<glyph unicode="=" glyph-name="null" horiz-adv-x="1160" d="M168 540H968L966 520H166L168 540ZM204 834H1004L1002 814H202L204 834Z" />
<glyph unicode="&gt;" glyph-name="null" horiz-adv-x="1160" d="M980 668V664L204 292L206 303Q207 310 211 314T227 324L910 650Q923 656 935 661T959 670Q948 673 937 678T915 690L312 1016Q302 1021 299 1025T296 1037L297 1048L982 676L980 668Z" />
<glyph unicode="?" glyph-name="null" horiz-adv-x="783" d="M176 1279Q201 1304 232 1329T301 1373T382 1404T474 1416Q526 1416 573 1399T657 1349T714 1269T736 1164Q736 1081 711 1022T646 918T561 840T473 777T402 717T366 648L338 476H322L344 650Q349 691
378 723T448 785T535 847T621 923T686 1023T712 1162Q712 1217 693 1260T640 1334T564 1380T472 1396Q405 1396 355 1376T270 1333T215 1289T188 1269Q184 1269 181 1273L176 1279ZM242 48Q242 75 260 94T306 114Q333 114 352 95T372 48Q372 21 353 3T306 -16Q279
-16 261 2T242 48Z" />
<glyph unicode="@" glyph-name="null" horiz-adv-x="1521" d="M1065 866Q1038 875 1013 879T948 884Q879 884 818 863T705 806T612 722T541 619T496 507T480 394Q480 357 488 325T515 268T560 230T626 216Q663 216 705 230T789 280T872 380T948 542L1065 866ZM1240
-82Q1125 -159 998 -197T726 -236Q595 -236 483 -193T289 -66T161 140T114 420Q114 550 143 666T226 881T351 1058T510 1192T692 1276T888 1306Q997 1306 1094 1272T1265 1170T1382 999T1426 760Q1426 630 1393 525T1306 346T1181 231T1038 190Q990 190 961 206T917
252T902 324T914 417Q853 302 777 249T618 196Q576 196 546 211T495 252T466 314T456 390Q456 449 472 510T520 628T595 735T694 823T813 882T950 904Q988 904 1026 897T1092 874L968 538Q930 432 924 368T932 268T977 222T1042 210Q1108 210 1173 247T1289 356T1372
529T1404 760Q1404 893 1363 991T1251 1155T1086 1253T886 1286Q793 1286 701 1258T526 1177T371 1049T247 877T166 667T136 424Q136 270 182 151T307 -49T495 -172T728 -214Q862 -214 985 -178T1222 -66Q1228 -61 1232 -63T1238 -70L1240 -82Z" />
<glyph unicode="A" glyph-name="null" horiz-adv-x="1178" d="M908 498L694 1326Q691 1337 689 1346T684 1367Q679 1356 674 1347T664 1326L246 498H908ZM1064 0H1046Q1037 0 1034 10L913 478H236L0 10Q-7 0 -16 0H-32L678 1400H698L1064 0Z" />
<glyph unicode="B" glyph-name="null" horiz-adv-x="1151" d="M534 20Q637 20 718 45T857 119T944 241T974 408Q974 475 950 529T880 621T768 679T620 700H256L172 20H534ZM259 720H580Q691 720 770 755T901 845T976 968T1000 1100Q1000 1232 915 1306T652 1380H340L259
720ZM654 1400Q840 1400 931 1323T1022 1104Q1022 1030 995 963T922 842T813 755T679 714Q754 708 813 684T913 621T976 529T998 410Q998 312 966 236T874 108T728 28T532 0H146L318 1400H654Z" />
<glyph unicode="C" glyph-name="null" horiz-adv-x="1266" d="M658 4Q737 4 801 17T915 52T1002 96T1064 141T1103 175T1123 189Q1125 189 1127 187L1136 178Q1090 135 1039 100T930 39T803 -1T656 -16Q539 -16 443 26T279 148T174 339T136 590Q136 774 190 926T341
1187T567 1356T850 1416Q920 1416 975 1406T1076 1376T1162 1324T1242 1252L1238 1246Q1234 1242 1226 1242Q1218 1242 1197 1266T1134 1319T1022 1372T848 1396Q703 1396 578 1340T359 1178T213 924T160 590Q160 455 196 347T299 162T456 45T658 4Z" />
<glyph unicode="D" glyph-name="null" horiz-adv-x="1411" d="M1298 812Q1298 621 1246 471T1101 216T881 56T606 0H146L318 1400H778Q897 1400 993 1360T1157 1243T1261 1058T1298 812ZM1272 812Q1272 945 1237 1050T1138 1229T981 1341T776 1380H340L172 20H608Q750
20 872 73T1082 227T1221 476T1272 812Z" />
<glyph unicode="E" glyph-name="null" horiz-adv-x="1081" d="M339 1378L259 722H878L874 700H256L173 22H904L900 0H146L318 1400H1072L1068 1378H339Z" />
<glyph unicode="F" glyph-name="null" horiz-adv-x="1056" d="M339 1378L256 702H894L890 680H254L170 0H146L318 1400H1072L1068 1378H339Z" />
<glyph unicode="G" glyph-name="null" horiz-adv-x="1373" d="M1177 138Q1125 103 1071 75T955 26T825 -5T673 -16Q548 -16 449 26T281 148T174 338T137 588Q137 777 190 930T339 1191T570 1357T869 1416Q941 1416 999 1407T1107 1378T1199 1328T1279 1256L1273
1250Q1270 1244 1263 1244Q1258 1244 1248 1255T1218 1283T1170 1320T1098 1356T998 1384T867 1396Q710 1396 580 1340T357 1180T213 925T161 588Q161 454 197 346T300 162T462 45T675 4Q754 4 819 13T942 41T1051 86T1157 147L1211 582H923Q918 582 915 585T913
592V602H1235L1177 138Z" />
<glyph unicode="H" glyph-name="null" horiz-adv-x="1388" d="M1268 1400L1096 0H1072L1158 700H256L170 0H146L318 1400H342L259 722H1161L1244 1400H1268Z" />
<glyph unicode="I" glyph-name="null" horiz-adv-x="462" d="M170 0H146L318 1400H342L170 0Z" />
<glyph unicode="J" glyph-name="null" horiz-adv-x="764" d="M536 412Q522 296 487 215T401 82T283 7T140 -16Q86 -16 44 -9T-38 14L-36 20Q-34 23 -32 26T-22 30Q-13 30 -2 26T28 17T74 8T142 4Q207 4 267 24T377 91T462 216T512 412L634 1400H658L536 412Z" />
<glyph unicode="K" glyph-name="null" horiz-adv-x="1131" d="M259 724H346Q363 724 375 725T398 729T418 740T440 758L1114 1384Q1125 1395 1133 1397T1150 1400H1164L460 748Q442 732 431 725T402 714Q418 711 428 704T450 682L1028 0H1018Q1003 0 998 3T986
14L434 664Q425 674 418 682T402 694T380 701T344 704H256L170 0H146L318 1402H342L259 724Z" />
<glyph unicode="L" glyph-name="null" horiz-adv-x="918" d="M830 22L826 0H146L318 1400H342L173 22H830Z" />
<glyph unicode="M" glyph-name="null" horiz-adv-x="1652" d="M1532 1400L1360 0H1340L1504 1338Q1505 1342 1505 1345T1506 1353L814 290Q807 280 800 280H794Q785 280 782 290L332 1357Q331 1352 331 1348T330 1338L166 0H146L318 1400H326Q335 1400 340 1392L794
314Q797 308 799 300Q801 303 803 307T808 314L1510 1392Q1515 1400 1524 1400H1532Z" />
<glyph unicode="N" glyph-name="null" horiz-adv-x="1388" d="M1268 1400L1096 0H1092Q1085 0 1078 10L332 1362Q331 1356 331 1350T330 1338L166 0H146L318 1400H326Q333 1400 338 1392L1083 43Q1083 48 1083 53T1084 64L1248 1400H1268Z" />
<glyph unicode="O" glyph-name="null" horiz-adv-x="1458" d="M1347 814Q1347 623 1294 470T1148 210T928 44T653 -14Q535 -14 440 28T278 149T174 338T137 586Q137 712 161 823T229 1026T336 1190T476 1313T642 1389T829 1416Q947 1416 1043 1374T1206 1253T1310
1063T1347 814ZM1321 814Q1321 948 1286 1056T1187 1239T1031 1355T827 1396Q734 1396 649 1371T489 1298T355 1180T251 1020T185 822T161 588Q161 454 196 346T297 163T453 47T655 6Q797 6 919 61T1130 221T1270 476T1321 814Z" />
<glyph unicode="P" glyph-name="null" horiz-adv-x="1038" d="M514 620Q616 620 701 653T847 745T943 884T978 1060Q978 1215 886 1297T608 1380H340L246 620H514ZM610 1400Q803 1400 902 1316T1002 1064Q1002 960 965 875T862 729T707 634T512 600H244L170 0H146L318
1400H610Z" />
<glyph unicode="Q" glyph-name="null" horiz-adv-x="1458" d="M161 588Q161 454 196 346T297 163T453 47T655 6Q797 6 919 61T1130 221T1270 476T1321 814Q1321 948 1286 1056T1187 1239T1031 1355T827 1396Q734 1396 649 1371T489 1298T355 1180T251 1020T185
822T161 588ZM947 52Q880 20 807 3T653 -14Q535 -14 440 28T278 149T174 338T137 586Q137 712 161 823T229 1026T336 1190T476 1313T642 1389T829 1416Q947 1416 1043 1374T1206 1253T1310 1063T1347 814Q1347 678 1320 561T1243 349T1123 181T965 62L1257 -326H1243Q1235
-326 1231 -324T1223 -318L947 52Z" />
<glyph unicode="R" glyph-name="null" horiz-adv-x="1095" d="M256 696H514Q617 696 701 723T846 803T939 930T972 1100Q972 1243 881 1311T616 1380H340L334 1328L256 696ZM618 1400Q802 1400 899 1327T996 1102Q996 1004 962 927T865 794T718 709T531 676Q539
672 545 666T558 650L980 0H964Q956 0 951 1T940 12L538 640Q531 650 524 657T508 668T486 674T454 676H253L170 0H146L318 1400H618Z" />
<glyph unicode="S" glyph-name="null" horiz-adv-x="980" d="M896 1272Q893 1266 886 1266Q880 1266 872 1275T850 1299T818 1331T770 1362T702 1386T612 1396Q526 1396 458 1367T343 1289T270 1173T244 1034Q244 965 269 919T337 840T432 784T541 740T650 695T745
638T812 556T838 436Q838 344 807 262T717 119T575 21T388 -16Q323 -16 273 -4T183 32T111 89T50 166L56 170Q59 173 61 174T68 176Q74 176 83 164T107 132T146 90T204 49T283 17T390 4Q487 4 566 38T700 131T786 268T816 436Q816 504 791 550T723 628T628 682T519
725T410 769T315 827T248 910T222 1032Q222 1108 248 1177T325 1300T449 1384T616 1416Q709 1416 777 1383T900 1278L896 1272Z" />
<glyph unicode="T" glyph-name="null" horiz-adv-x="1042" d="M1112 1378H629L460 0H436L605 1378H118L120 1400H1114L1112 1378Z" />
<glyph unicode="U" glyph-name="null" horiz-adv-x="1339" d="M598 4Q701 4 788 44T941 155T1048 319T1104 520L1212 1400H1236L1128 520Q1114 409 1069 311T955 140T794 25T594 -18Q487 -18 406 24T274 140T201 311T194 520L302 1400H326L218 522Q205 415 224
321T291 156T416 45T598 4Z" />
<glyph unicode="V" glyph-name="null" horiz-adv-x="1171" d="M1231 1400L523 0H503L137 1400H155Q165 1400 165 1390L507 74Q510 63 512 54T517 33Q522 44 527 53T537 74L1201 1390Q1204 1400 1215 1400H1231Z" />
<glyph unicode="W" glyph-name="null" horiz-adv-x="1848" d="M1886 1400L1306 0H1286L1022 1344Q1020 1352 1020 1361T1018 1379Q1013 1360 1006 1344L412 0H392L156 1400H174Q184 1400 184 1390L400 74Q404 54 407 30Q411 42 415 52T424 74L1006 1390Q1010 1400
1020 1400H1024Q1033 1400 1034 1390L1292 74Q1296 54 1299 30Q1303 42 1307 52T1316 74L1854 1390Q1856 1395 1860 1397T1870 1400H1886Z" />
<glyph unicode="X" glyph-name="null" horiz-adv-x="1121" d="M597 748L1010 0H988Q980 0 978 5T972 14L579 734Q576 729 570 722L10 14Q5 8 1 4T-10 0H-32L565 748L202 1400H222Q230 1400 233 1396T242 1384L583 761Q585 766 592 774L1082 1390Q1087 1396 1091
1398T1102 1400H1120L597 748Z" />
<glyph unicode="Y" glyph-name="null" horiz-adv-x="1051" d="M538 595L464 0H440L514 595L132 1400H152Q161 1400 164 1392L516 642Q519 636 522 630T528 615Q533 623 537 629T546 642L1082 1392Q1087 1400 1096 1400H1116L538 595Z" />
<glyph unicode="Z" glyph-name="null" horiz-adv-x="1086" d="M1105 1390Q1103 1385 1102 1383T1095 1374L34 22H935L931 0H-1L1 10Q3 15 4 17T9 24L1072 1378H183L187 1400H1107L1105 1390Z" />
<glyph unicode="[" glyph-name="null" horiz-adv-x="542" d="M576 1496Q573 1484 562 1484H344L132 -224H352Q364 -224 364 -236L362 -242H110L324 1502H576V1496Z" />
<glyph unicode="\" glyph-name="null" horiz-adv-x="776" d="M183 1440H193Q208 1440 211 1428L615 -78H607Q601 -78 595 -76T587 -66L183 1440Z" />
<glyph unicode="]" glyph-name="null" horiz-adv-x="545" d="M230 -242H-24V-236Q-21 -224 -8 -224H210L420 1484H202Q187 1484 190 1496V1502H444L230 -242Z" />
<glyph unicode="^" glyph-name="null" horiz-adv-x="1160" d="M968 812H954Q941 812 934 826L654 1332Q649 1342 644 1351T636 1372Q633 1361 628 1352T618 1332L338 826Q335 821 331 817T318 812H304L630 1400H642L968 812Z" />
<glyph unicode="_" glyph-name="null" horiz-adv-x="886" d="M703 -240L699 -262H-25L-23 -240H703Z" />
<glyph unicode="`" glyph-name="null" horiz-adv-x="736" d="M411 1416Q426 1416 433 1412T448 1394L572 1158H559Q549 1158 546 1166L387 1416H411Z" />
<glyph unicode="a" glyph-name="null" horiz-adv-x="976" d="M826 934Q789 954 749 963T663 972Q591 972 522 947T391 878T277 773T187 640T128 488T107 326Q107 253 119 195T158 95T225 31T323 8Q387 8 449 41T569 136T677 286T770 484L826 934ZM766 431Q727
333 679 252T573 112T453 21T323 -12Q258 -12 213 13T139 83T97 190T83 326Q83 410 105 492T166 648T259 785T377 894T514 966T663 992Q717 992 762 982T849 944L735 0H729Q721 0 719 4T717 14L766 431Z" />
<glyph unicode="b" glyph-name="null" horiz-adv-x="1009" d="M145 194Q169 143 199 108T265 50T340 18T421 8Q493 8 554 37T666 115T756 229T821 367T861 514T875 658Q875 731 860 789T816 889T744 952T643 974Q578 974 514 941T390 845T277 695T182 495L145
194ZM189 554Q228 651 279 732T389 871T512 961T643 994Q708 994 756 969T835 898T882 792T897 658Q897 587 883 510T840 358T770 216T675 99T558 18T419 -12Q332 -12 257 31T140 163L117 14Q115 8 115 4T107 0H101L275 1440H297L189 554Z" />
<glyph unicode="c" glyph-name="null" horiz-adv-x="913" d="M787 182Q732 121 685 83T592 24T503 -4T411 -12Q327 -12 267 17T167 98T110 219T91 370Q91 447 107 524T152 670T224 799T318 902T433 971T565 996Q613 996 651 987T721 960T777 918T823 866L819 862Q815
858 809 858Q802 858 788 876T746 917T674 957T563 976Q466 976 384 924T242 787T149 593T115 370Q115 294 131 228T184 113T276 36T411 8Q471 8 519 21T605 55T671 98T719 141T753 174T775 188Q781 188 785 184L787 182V182Z" />
<glyph unicode="d" glyph-name="null" horiz-adv-x="1010" d="M838 791Q814 842 784 877T718 933T643 964T563 974Q491 974 430 945T318 867T228 754T163 617T123 470T109 326Q109 253 124 195T168 95T240 31T341 8Q405 8 469 41T592 136T705 286T800 484L838
791ZM941 1440L765 0H759Q751 0 749 4T747 14L796 432Q757 334 706 253T596 112T472 21T341 -12Q276 -12 228 14T149 85T102 192T87 326Q87 397 101 474T144 626T214 767T309 884T426 964T565 994Q608 994 649 984T726 952T791 899T842 824L919 1440H941Z" />
<glyph unicode="e" glyph-name="null" horiz-adv-x="920" d="M573 974Q478 974 403 933T271 825T178 673T125 498Q273 514 380 534T561 579T680 630T751 688T784 749T793 814Q793 838 782 866T745 918T677 958T573 974ZM785 182Q738 131 694 95T604 34T512 -1T413
-12Q333 -12 273 14T172 88T111 205T91 362Q91 434 105 509T147 655T216 787T310 895T429 967T573 994Q643 994 689 975T762 928T800 869T811 814Q811 775 801 740T763 672T686 612T561 560T376 515T122 478Q113 419 113 362Q113 280 132 215T188 103T282 33T415
8Q472 8 518 21T602 55T667 98T716 141T751 174T773 188Q779 188 783 184L785 182Z" />
<glyph unicode="f" glyph-name="null" horiz-adv-x="594" d="M277 920L166 10L128 -240Q126 -248 123 -250T116 -252H112L255 920L108 924Q98 924 98 932V938H257L276 1088Q286 1172 312 1233T376 1335T462 1394T564 1414Q590 1414 617 1409T664 1392L660 1384Q658
1377 652 1378T633 1382T604 1390T562 1394Q514 1394 471 1378T393 1325T333 1230T298 1088L278 938H584L580 920H277Z" />
<glyph unicode="g" glyph-name="null" horiz-adv-x="886" d="M711 740Q711 799 694 843T647 916T573 959T477 974Q403 974 346 946T249 871T188 764T167 640Q167 520 230 459T399 398Q472 398 530 428T628 506T690 615T711 740ZM689 -76Q689 -41 681 -14T658 37T627
79T591 117Q440 136 327 122T137 68T23 -28T-17 -150Q-17 -200 6 -238T70 -302T169 -342T295 -356Q384 -356 456 -332T580 -268T660 -178T689 -76ZM887 946V938Q887 935 884 932T869 928L663 926Q695 894 713 847T731 740Q730 680 715 631T677 541T628 466T579
399T542 334T527 266Q527 238 540 214T574 166T619 118T663 65T697 2T711 -76Q710 -133 680 -187T594 -283T462 -350T293 -376Q221 -376 160 -362T55 -319T-14 -248T-39 -150Q-38 -76 6 -15T130 86T322 141T571 137Q545 165 526 195T507 266Q507 285 510 303T523
343T548 389T591 447Q546 414 497 396T399 378Q342 378 295 395T215 446T164 529T145 640Q145 707 167 770T233 883T337 963T477 994Q574 994 639 946H887Z" />
<glyph unicode="h" glyph-name="null" horiz-adv-x="1007" d="M195 599Q235 689 287 762T397 886T519 966T645 994Q709 994 753 970T821 898T851 783T847 628L773 0H751L825 628Q835 710 830 774T802 882T741 950T643 974Q582 974 520 945T399 860T287 725T189
548L123 0H101L275 1440H297L195 599Z" />
<glyph unicode="i" glyph-name="null" horiz-adv-x="392" d="M254 980L134 0H112L232 980H254ZM332 1344Q332 1323 316 1307T280 1290Q259 1290 244 1306T228 1344Q228 1367 243 1383T280 1400Q300 1400 316 1384T332 1344Z" />
<glyph unicode="j" glyph-name="null" horiz-adv-x="391" d="M254 980L112 -172Q107 -216 90 -253T46 -317T-16 -359T-92 -374Q-116 -374 -133 -369T-166 -352L-162 -344Q-158 -336 -153 -336T-140 -341T-120 -349T-90 -354Q-13 -354 33 -304T90 -172L232 980H254ZM338
1344Q338 1323 322 1307T286 1290Q265 1290 250 1306T234 1344Q234 1367 249 1383T286 1400Q306 1400 322 1384T338 1344Z" />
<glyph unicode="k" glyph-name="null" horiz-adv-x="830" d="M298 1440L187 536H230Q245 536 254 539T278 554L756 964Q764 972 772 976T792 980H808L298 546Q283 534 272 529Q284 525 292 519T308 504L724 0H708Q700 0 694 2T682 12L290 490Q276 507 263 512T222
518H185L122 0H100L276 1440H298Z" />
<glyph unicode="l" glyph-name="null" horiz-adv-x="390" d="M113 0L287 1440H309L133 0H113Z" />
<glyph unicode="m" glyph-name="null" horiz-adv-x="1548" d="M101 0L219 984H223Q231 984 233 980T235 970L192 588Q231 681 280 756T385 884T502 965T627 994Q691 994 728 970T783 898T800 783T789 628Q827 720 877 789T984 903T1099 971T1213 994Q1277 994
1316 970T1375 898T1395 783T1387 628L1313 0H1291L1365 628Q1375 710 1374 774T1357 882T1305 950T1211 974Q1157 974 1100 951T987 881T880 759T786 583L717 0H695L769 628Q779 710 780 774T766 882T718 950T625 974Q495 974 386 862T187 539L123 0H101Z" />
<glyph unicode="n" glyph-name="null" horiz-adv-x="1009" d="M192 588Q232 681 284 756T395 884T519 965T647 994Q774 994 822 898T849 628L775 0H753L827 628Q837 710 832 774T804 882T743 950T645 974Q583 974 520 944T397 857T284 720T187 539L123 0H101L219
984H223Q231 984 233 980T235 970L192 588Z" />
<glyph unicode="o" glyph-name="null" horiz-adv-x="1017" d="M432 8Q531 8 612 58T752 192T842 381T874 598Q874 686 852 755T789 873T690 948T560 974Q494 974 436 952T328 889T240 793T174 672T133 534T118 386Q118 298 140 228T202 109T301 34T432 8ZM430
-12Q352 -12 290 16T184 95T117 220T94 386Q94 463 109 538T152 680T221 805T314 905T428 970T562 994Q640 994 702 966T807 887T874 762T898 598Q898 522 883 447T840 304T771 178T678 78T564 12T430 -12Z" />
<glyph unicode="p" glyph-name="null" horiz-adv-x="1010" d="M146 194Q170 143 200 108T266 50T341 18T422 8Q494 8 555 37T667 115T757 229T822 367T862 514T876 658Q876 731 861 789T817 889T745 952T644 974Q579 974 515 941T391 845T278 694T183 494L146
194ZM189 552Q228 649 279 730T389 870T513 961T644 994Q709 994 757 969T836 898T883 792T898 658Q898 587 884 510T841 358T771 216T676 99T559 18T420 -12Q334 -12 259 30T142 162L78 -360H56L220 984H224Q232 984 234 980T236 970L189 552Z" />
<glyph unicode="q" glyph-name="null" horiz-adv-x="977" d="M826 934Q789 954 749 963T663 972Q591 972 522 947T391 878T277 773T187 640T128 488T107 326Q107 253 119 195T158 95T225 31T323 8Q387 8 449 41T569 135T677 284T770 482L826 934ZM762 422Q723
326 675 247T570 110T452 20T323 -12Q258 -12 213 13T139 83T97 190T83 326Q83 410 105 492T166 648T259 785T377 894T514 966T663 992Q717 992 762 982T849 944L691 -360H687Q675 -360 671 -354T669 -326L762 422Z" />
<glyph unicode="r" glyph-name="null" horiz-adv-x="634" d="M195 608Q236 719 286 800T394 928T515 988T645 976L641 958Q571 984 507 967T386 896T279 754T188 549L123 0H101L219 984H223Q231 984 233 980T235 970L195 608Z" />
<glyph unicode="s" glyph-name="null" horiz-adv-x="775" d="M685 892Q682 886 675 886Q668 886 655 899T617 929T552 960T451 974Q394 974 342 954T250 900T187 820T163 726Q163 680 183 649T235 595T309 557T394 526T480 493T554 450T607 389T627 300Q627 241
603 184T536 83T431 11T295 -16Q247 -16 210 -8T142 16T87 53T37 102L43 108Q49 114 53 114Q58 114 72 97T114 58T186 20T299 2Q367 2 424 26T521 90T584 185T607 300Q607 349 587 383T535 440T460 480T375 511T290 543T216 583T163 641T143 726Q143 779 167 827T234
913T333 972T455 994Q532 994 587 972T689 898L685 892Z" />
<glyph unicode="t" glyph-name="null" horiz-adv-x="659" d="M165 146Q165 151 165 160T167 187T172 232T181 302L256 918H107Q95 918 95 928L97 934L258 938L313 1332Q314 1337 317 1341T325 1346H331L281 938H587L585 918H278L203 300Q198 259 195 232T190 187T188
160T187 146Q187 108 196 81T223 37T263 12T313 4Q352 4 382 17T435 45T472 73T491 86Q497 86 499 82L501 78Q468 37 416 11T311 -16Q242 -16 204 22T165 146Z" />
<glyph unicode="u" glyph-name="null" horiz-adv-x="1009" d="M882 980L764 0H758Q750 0 748 4T746 14L792 394V399Q752 306 700 230T589 100T465 17T336 -12Q272 -12 229 13T161 85T130 200T134 356L208 980H230L156 356Q146 274 151 210T179 100T240 32T338
8Q400 8 463 38T586 126T699 264T796 445L860 980H882Z" />
<glyph unicode="v" glyph-name="null" horiz-adv-x="900" d="M898 980L386 0H370L98 980H110Q118 980 121 976T126 966L374 68Q379 50 381 28Q384 38 388 47T398 68L866 966Q873 980 886 980H898Z" />
<glyph unicode="w" glyph-name="null" horiz-adv-x="1379" d="M1364 980L936 0H926Q916 0 916 10L738 922Q734 937 734 953Q730 939 722 922L318 10Q315 0 308 0H298L110 980H120Q133 980 136 966L304 68Q306 57 307 48T309 27Q316 46 326 68L724 976Q727 986
736 986H740Q748 986 748 976L924 68Q926 57 927 48T929 28Q934 38 938 47T948 68L1334 966Q1341 980 1352 980H1364Z" />
<glyph unicode="x" glyph-name="null" horiz-adv-x="824" d="M418 519L706 0H694Q679 0 674 10L401 506Q398 501 392 494L8 8Q0 0 -10 0H-26L392 521L134 980H146Q159 980 164 972L408 535Q410 538 412 540T416 546L754 972Q759 980 768 980H786L418 519Z" />
<glyph unicode="y" glyph-name="null" horiz-adv-x="903" d="M903 980L205 -344Q197 -360 183 -360H171L372 17L101 980H113Q126 980 129 966L379 76Q381 66 383 57T386 37Q394 59 403 76L873 970Q878 980 889 980H903Z" />
<glyph unicode="z" glyph-name="null" horiz-adv-x="809" d="M785 980L783 970Q783 966 775 958L29 20H639L637 0H-3V6Q-3 11 -1 14T5 20L752 960H145L149 980H785Z" />
<glyph unicode="{" glyph-name="null" horiz-adv-x="542" d="M573 1502V1494Q570 1484 559 1484H519Q472 1484 430 1464T355 1405T304 1308T285 1174Q285 1138 288 1099T294 1019T300 939T303 866Q303 807 288 765T248 694T196 650T142 630Q162 626 182 615T219
586T246 541T257 482Q257 420 238 359T197 237T156 111T137 -20Q137 -66 149 -103T184 -168T239 -209T309 -224H351Q361 -224 361 -234L359 -242H307Q263 -242 228 -225T167 -177T129 -106T115 -18Q115 52 134 114T176 236T218 355T237 480Q237 542 198 581T97
620L99 640Q136 640 169 654T227 696T266 767T281 868Q281 904 278 943T272 1021T266 1099T263 1174Q263 1248 283 1308T338 1412T420 1478T521 1502H573Z" />
<glyph unicode="|" glyph-name="null" horiz-adv-x="467" d="M221 1502H241V-360H221V1502Z" />
<glyph unicode="}" glyph-name="null" horiz-adv-x="544" d="M245 1502Q289 1502 324 1485T385 1437T423 1365T437 1278Q437 1231 428 1188T406 1104T377 1024T348 944T326 864T317 780Q317 749 327 724T355 680T399 651T457 640L453 620Q417 620 384 606T326
564T286 493T271 392Q271 356 274 317T280 239T286 161T289 86Q289 12 269 -48T214 -152T132 -218T31 -242H-21L-19 -234Q-19 -224 -7 -224H33Q80 -224 122 -204T197 -145T248 -48T267 86Q267 122 265 161T259 241T254 320T251 394Q251 453 266 495T305 566T357
610T411 630Q390 634 370 645T333 674T306 719T295 778Q295 840 313 901T354 1023T396 1148T415 1280Q415 1326 403 1363T368 1428T313 1469T243 1484H203Q190 1484 193 1494V1502H245Z" />
<glyph unicode="~" glyph-name="null" horiz-adv-x="1160" d="M797 528Q839 528 872 543T930 586T967 649T981 728H1001Q1001 684 988 645T948 575T884 526T797 508Q746 508 690 530T578 580T468 629T365 652Q323 652 290 637T232 594T195 531T181 452H161Q161
495 174 535T214 605T278 654T365 672Q416 672 472 650T584 600T694 551T797 528Z" />
</font>
</defs>
</svg>
